<svg xmlns="http://www.w3.org/2000/svg" viewBox="0 0 100 100">
  <g>
    <path d="M50,10 C30,10 15,25 15,45 C15,65 30,80 50,80 C70,80 85,65 85,45 C85,25 70,10 50,10 Z" fill="#0ff" opacity="0.7" />
    <path d="M50,10 C30,10 15,25 15,45 C15,65 30,80 50,80" fill="none" stroke="#00ffcc" stroke-width="2" stroke-dasharray="4" />
    <path d="M50,10 C70,10 85,25 85,45 C85,65 70,80 50,80" fill="none" stroke="#333" stroke-width="2" />
    <circle cx="35" cy="40" r="5" fill="#00ffcc" />
    <circle cx="65" cy="40" r="5" fill="#333" />
    <path d="M30,55 Q50,70 70,55" fill="none" stroke="#333" stroke-width="2" />
    <path d="M50,30 L50,60" fill="none" stroke="#777" stroke-width="1" stroke-dasharray="2" />
  </g>
</svg>

