<svg xmlns="http://www.w3.org/2000/svg" width="1000" height="1000" viewBox="0 0 1000 1000">
  <defs>
    <radialGradient id="dot-gradient" cx="50%" cy="50%" r="50%" fx="50%" fy="50%">
      <stop offset="0%" stop-color="#00ffff" stop-opacity="0.8" />
      <stop offset="100%" stop-color="#00ffff" stop-opacity="0" />
    </radialGradient>
  </defs>
  
  <!-- Vertical lines -->
  <g stroke="#0066cc" stroke-width="1" opacity="0.2">
    <line x1="100" y1="0" x2="100" y2="1000" />
    <line x1="200" y1="0" x2="200" y2="1000" />
    <line x1="300" y1="0" x2="300" y2="1000" />
    <line x1="400" y1="0" x2="400" y2="1000" />
    <line x1="500" y1="0" x2="500" y2="1000" />
    <line x1="600" y1="0" x2="600" y2="1000" />
    <line x1="700" y1="0" x2="700" y2="1000" />
    <line x1="800" y1="0" x2="800" y2="1000" />
    <line x1="900" y1="0" x2="900" y2="1000" />
  </g>
  
  <!-- Horizontal lines -->
  <g stroke="#0066cc" stroke-width="1" opacity="0.2">
    <line x1="0" y1="100" x2="1000" y2="100" />
    <line x1="0" y1="200" x2="1000" y2="200" />
    <line x1="0" y1="300" x2="1000" y2="300" />
    <line x1="0" y1="400" x2="1000" y2="400" />
    <line x1="0" y1="500" x2="1000" y2="500" />
    <line x1="0" y1="600" x2="1000" y2="600" />
    <line x1="0" y1="700" x2="1000" y2="700" />
    <line x1="0" y1="800" x2="1000" y2="800" />
    <line x1="0" y1="900" x2="1000" y2="900" />
  </g>
  
  <!-- Glowing dots -->
  <g>
    <circle cx="100" cy="100" r="5" fill="url(#dot-gradient)" />
    <circle cx="300" cy="200" r="5" fill="url(#dot-gradient)" />
    <circle cx="500" cy="100" r="5" fill="url(#dot-gradient)" />
    <circle cx="700" cy="300" r="5" fill="url(#dot-gradient)" />
    <circle cx="900" cy="200" r="5" fill="url(#dot-gradient)" />
    <circle cx="200" cy="400" r="5" fill="url(#dot-gradient)" />
    <circle cx="400" cy="500" r="5" fill="url(#dot-gradient)" />
    <circle cx="600" cy="400" r="5" fill="url(#dot-gradient)" />
    <circle cx="800" cy="600" r="5" fill="url(#dot-gradient)" />
    <circle cx="100" cy="700" r="5" fill="url(#dot-gradient)" />
    <circle cx="300" cy="800" r="5" fill="url(#dot-gradient)" />
    <circle cx="500" cy="700" r="5" fill="url(#dot-gradient)" />
    <circle cx="700" cy="900" r="5" fill="url(#dot-gradient)" />
    <circle cx="900" cy="800" r="5" fill="url(#dot-gradient)" />
  </g>
  
  <!-- Data flow lines -->
  <g stroke="#00ccff" stroke-width="2" opacity="0.3">
    <line x1="100" y1="100" x2="300" y2="200">
      <animate attributeName="stroke-dashoffset" from="0" to="100" dur="5s" repeatCount="indefinite" />
    </line>
    <line x1="300" y1="200" x2="500" y2="100">
      <animate attributeName="stroke-dashoffset" from="0" to="100" dur="5s" repeatCount="indefinite" />
    </line>
    <line x1="500" y1="100" x2="700" y2="300">
      <animate attributeName="stroke-dashoffset" from="0" to="100" dur="5s" repeatCount="indefinite" />
    </line>
    <line x1="700" y1="300" x2="900" y2="200">
      <animate attributeName="stroke-dashoffset" from="0" to="100" dur="5s" repeatCount="indefinite" />
    </line>
    <line x1="200" y1="400" x2="400" y2="500">
      <animate attributeName="stroke-dashoffset" from="0" to="100" dur="5s" repeatCount="indefinite" />
    </line>
    <line x1="400" y1="500" x2="600" y2="400">
      <animate attributeName="stroke-dashoffset" from="0" to="100" dur="5s" repeatCount="indefinite" />
    </line>
    <line x1="600" y1="400" x2="800" y2="600">
      <animate attributeName="stroke-dashoffset" from="0" to="100" dur="5s" repeatCount="indefinite" />
    </line>
    <line x1="100" y1="700" x2="300" y2="800">
      <animate attributeName="stroke-dashoffset" from="0" to="100" dur="5s" repeatCount="indefinite" />
    </line>
    <line x1="300" y1="800" x2="500" y2="700">
      <animate attributeName="stroke-dashoffset" from="0" to="100" dur="5s" repeatCount="indefinite" />
    </line>
    <line x1="500" y1="700" x2="700" y2="900">
      <animate attributeName="stroke-dashoffset" from="0" to="100" dur="5s" repeatCount="indefinite" />
    </line>
    <line x1="700" y1="900" x2="900" y2="800">
      <animate attributeName="stroke-dashoffset" from="0" to="100" dur="5s" repeatCount="indefinite" />
    </line>
  </g>
</svg>

